<mxfile host="app.diagrams.net" agent="Mozilla/5.0 (X11; Linux x86_64) AppleWebKit/537.36 (KHTML, like Gecko) Chrome/131.0.0.0 Safari/537.36" version="24.8.6">
  <diagram name="Page-1" id="BAi_JHvCbbikIm0ifZ76">
    <mxGraphModel dx="1434" dy="780" grid="1" gridSize="10" guides="1" tooltips="1" connect="1" arrows="1" fold="1" page="0" pageScale="1" pageWidth="850" pageHeight="1100" math="0" shadow="0">
      <root>
        <mxCell id="0" />
        <mxCell id="1" parent="0" />
        <mxCell id="LuFwdIvgryWhf0tasw3m-9" value="" style="group" vertex="1" connectable="0" parent="1">
          <mxGeometry x="20" y="80" width="150" height="220" as="geometry" />
        </mxCell>
        <mxCell id="LuFwdIvgryWhf0tasw3m-1" value="Button" style="swimlane;fontStyle=0;childLayout=stackLayout;horizontal=1;startSize=30;horizontalStack=0;resizeParent=1;resizeParentMax=0;resizeLast=0;collapsible=1;marginBottom=0;whiteSpace=wrap;html=1;" vertex="1" parent="LuFwdIvgryWhf0tasw3m-9">
          <mxGeometry width="150" height="180" as="geometry" />
        </mxCell>
        <mxCell id="LuFwdIvgryWhf0tasw3m-2" value="rect" style="text;strokeColor=none;fillColor=none;align=left;verticalAlign=middle;spacingLeft=4;spacingRight=4;overflow=hidden;points=[[0,0.5],[1,0.5]];portConstraint=eastwest;rotatable=0;whiteSpace=wrap;html=1;" vertex="1" parent="LuFwdIvgryWhf0tasw3m-1">
          <mxGeometry y="30" width="150" height="30" as="geometry" />
        </mxCell>
        <mxCell id="LuFwdIvgryWhf0tasw3m-3" value="text" style="text;strokeColor=none;fillColor=none;align=left;verticalAlign=middle;spacingLeft=4;spacingRight=4;overflow=hidden;points=[[0,0.5],[1,0.5]];portConstraint=eastwest;rotatable=0;whiteSpace=wrap;html=1;" vertex="1" parent="LuFwdIvgryWhf0tasw3m-1">
          <mxGeometry y="60" width="150" height="30" as="geometry" />
        </mxCell>
        <mxCell id="LuFwdIvgryWhf0tasw3m-4" value="piece" style="text;strokeColor=none;fillColor=none;align=left;verticalAlign=middle;spacingLeft=4;spacingRight=4;overflow=hidden;points=[[0,0.5],[1,0.5]];portConstraint=eastwest;rotatable=0;whiteSpace=wrap;html=1;" vertex="1" parent="LuFwdIvgryWhf0tasw3m-1">
          <mxGeometry y="90" width="150" height="30" as="geometry" />
        </mxCell>
        <mxCell id="LuFwdIvgryWhf0tasw3m-5" value="font" style="text;strokeColor=none;fillColor=none;align=left;verticalAlign=middle;spacingLeft=4;spacingRight=4;overflow=hidden;points=[[0,0.5],[1,0.5]];portConstraint=eastwest;rotatable=0;whiteSpace=wrap;html=1;" vertex="1" parent="LuFwdIvgryWhf0tasw3m-1">
          <mxGeometry y="120" width="150" height="30" as="geometry" />
        </mxCell>
        <mxCell id="LuFwdIvgryWhf0tasw3m-6" value="colour" style="text;strokeColor=none;fillColor=none;align=left;verticalAlign=middle;spacingLeft=4;spacingRight=4;overflow=hidden;points=[[0,0.5],[1,0.5]];portConstraint=eastwest;rotatable=0;whiteSpace=wrap;html=1;" vertex="1" parent="LuFwdIvgryWhf0tasw3m-1">
          <mxGeometry y="150" width="150" height="30" as="geometry" />
        </mxCell>
        <mxCell id="LuFwdIvgryWhf0tasw3m-7" value="" style="swimlane;startSize=0;" vertex="1" parent="LuFwdIvgryWhf0tasw3m-9">
          <mxGeometry y="180" width="150" height="40" as="geometry" />
        </mxCell>
        <mxCell id="LuFwdIvgryWhf0tasw3m-8" value="draw" style="text;strokeColor=none;fillColor=none;align=left;verticalAlign=middle;spacingLeft=4;spacingRight=4;overflow=hidden;points=[[0,0.5],[1,0.5]];portConstraint=eastwest;rotatable=0;whiteSpace=wrap;html=1;" vertex="1" parent="LuFwdIvgryWhf0tasw3m-7">
          <mxGeometry y="5" width="150" height="30" as="geometry" />
        </mxCell>
        <mxCell id="LuFwdIvgryWhf0tasw3m-21" value="" style="group" vertex="1" connectable="0" parent="1">
          <mxGeometry x="210" y="180" width="150" height="480" as="geometry" />
        </mxCell>
        <mxCell id="LuFwdIvgryWhf0tasw3m-16" style="edgeStyle=orthogonalEdgeStyle;rounded=0;orthogonalLoop=1;jettySize=auto;html=1;exitX=0.5;exitY=1;exitDx=0;exitDy=0;entryX=0.5;entryY=0;entryDx=0;entryDy=0;" edge="1" parent="LuFwdIvgryWhf0tasw3m-21" source="LuFwdIvgryWhf0tasw3m-10" target="LuFwdIvgryWhf0tasw3m-11">
          <mxGeometry relative="1" as="geometry" />
        </mxCell>
        <mxCell id="LuFwdIvgryWhf0tasw3m-10" value="draw(surface)" style="shape=process;whiteSpace=wrap;html=1;backgroundOutline=1;" vertex="1" parent="LuFwdIvgryWhf0tasw3m-21">
          <mxGeometry width="150" height="80" as="geometry" />
        </mxCell>
        <mxCell id="LuFwdIvgryWhf0tasw3m-17" style="edgeStyle=orthogonalEdgeStyle;rounded=0;orthogonalLoop=1;jettySize=auto;html=1;exitX=0.5;exitY=1;exitDx=0;exitDy=0;entryX=0.5;entryY=0;entryDx=0;entryDy=0;" edge="1" parent="LuFwdIvgryWhf0tasw3m-21" source="LuFwdIvgryWhf0tasw3m-11" target="LuFwdIvgryWhf0tasw3m-12">
          <mxGeometry relative="1" as="geometry" />
        </mxCell>
        <mxCell id="LuFwdIvgryWhf0tasw3m-11" value="create a pygame rect" style="rounded=0;whiteSpace=wrap;html=1;" vertex="1" parent="LuFwdIvgryWhf0tasw3m-21">
          <mxGeometry x="15" y="100" width="120" height="60" as="geometry" />
        </mxCell>
        <mxCell id="LuFwdIvgryWhf0tasw3m-18" style="edgeStyle=orthogonalEdgeStyle;rounded=0;orthogonalLoop=1;jettySize=auto;html=1;exitX=0.5;exitY=1;exitDx=0;exitDy=0;" edge="1" parent="LuFwdIvgryWhf0tasw3m-21" source="LuFwdIvgryWhf0tasw3m-12" target="LuFwdIvgryWhf0tasw3m-13">
          <mxGeometry relative="1" as="geometry" />
        </mxCell>
        <mxCell id="LuFwdIvgryWhf0tasw3m-12" value="create the appropriate text for the button" style="rounded=0;whiteSpace=wrap;html=1;" vertex="1" parent="LuFwdIvgryWhf0tasw3m-21">
          <mxGeometry x="15" y="180" width="120" height="60" as="geometry" />
        </mxCell>
        <mxCell id="LuFwdIvgryWhf0tasw3m-19" style="edgeStyle=orthogonalEdgeStyle;rounded=0;orthogonalLoop=1;jettySize=auto;html=1;exitX=0.5;exitY=1;exitDx=0;exitDy=0;" edge="1" parent="LuFwdIvgryWhf0tasw3m-21" source="LuFwdIvgryWhf0tasw3m-13" target="LuFwdIvgryWhf0tasw3m-14">
          <mxGeometry relative="1" as="geometry" />
        </mxCell>
        <mxCell id="LuFwdIvgryWhf0tasw3m-13" value="render the rect in the correct place" style="rounded=0;whiteSpace=wrap;html=1;" vertex="1" parent="LuFwdIvgryWhf0tasw3m-21">
          <mxGeometry x="15" y="260" width="120" height="60" as="geometry" />
        </mxCell>
        <mxCell id="LuFwdIvgryWhf0tasw3m-20" style="edgeStyle=orthogonalEdgeStyle;rounded=0;orthogonalLoop=1;jettySize=auto;html=1;exitX=0.5;exitY=1;exitDx=0;exitDy=0;entryX=0.5;entryY=0;entryDx=0;entryDy=0;" edge="1" parent="LuFwdIvgryWhf0tasw3m-21" source="LuFwdIvgryWhf0tasw3m-14" target="LuFwdIvgryWhf0tasw3m-15">
          <mxGeometry relative="1" as="geometry" />
        </mxCell>
        <mxCell id="LuFwdIvgryWhf0tasw3m-14" value="Align text appropriately to the rect" style="rounded=0;whiteSpace=wrap;html=1;" vertex="1" parent="LuFwdIvgryWhf0tasw3m-21">
          <mxGeometry x="15" y="340" width="120" height="60" as="geometry" />
        </mxCell>
        <mxCell id="LuFwdIvgryWhf0tasw3m-15" value="End" style="rounded=1;whiteSpace=wrap;html=1;" vertex="1" parent="LuFwdIvgryWhf0tasw3m-21">
          <mxGeometry x="15" y="420" width="120" height="60" as="geometry" />
        </mxCell>
        <mxCell id="LuFwdIvgryWhf0tasw3m-25" style="edgeStyle=orthogonalEdgeStyle;rounded=0;orthogonalLoop=1;jettySize=auto;html=1;exitX=1;exitY=0.5;exitDx=0;exitDy=0;" edge="1" parent="1" source="LuFwdIvgryWhf0tasw3m-22">
          <mxGeometry relative="1" as="geometry">
            <mxPoint x="840" y="225" as="targetPoint" />
          </mxGeometry>
        </mxCell>
        <mxCell id="LuFwdIvgryWhf0tasw3m-28" value="No" style="edgeLabel;html=1;align=center;verticalAlign=middle;resizable=0;points=[];" vertex="1" connectable="0" parent="LuFwdIvgryWhf0tasw3m-25">
          <mxGeometry x="-0.2057" y="1" relative="1" as="geometry">
            <mxPoint as="offset" />
          </mxGeometry>
        </mxCell>
        <mxCell id="LuFwdIvgryWhf0tasw3m-26" style="edgeStyle=orthogonalEdgeStyle;rounded=0;orthogonalLoop=1;jettySize=auto;html=1;exitX=0.5;exitY=1;exitDx=0;exitDy=0;" edge="1" parent="1" source="LuFwdIvgryWhf0tasw3m-22" target="LuFwdIvgryWhf0tasw3m-23">
          <mxGeometry relative="1" as="geometry" />
        </mxCell>
        <mxCell id="LuFwdIvgryWhf0tasw3m-29" value="Yes" style="edgeLabel;html=1;align=center;verticalAlign=middle;resizable=0;points=[];" vertex="1" connectable="0" parent="LuFwdIvgryWhf0tasw3m-26">
          <mxGeometry x="0.32" y="2" relative="1" as="geometry">
            <mxPoint as="offset" />
          </mxGeometry>
        </mxCell>
        <mxCell id="LuFwdIvgryWhf0tasw3m-22" value="Does the move just played have 3 elements in the legal moves list?&lt;div&gt;(this only happens if a pawn has been promoted)&lt;/div&gt;" style="rhombus;whiteSpace=wrap;html=1;" vertex="1" parent="1">
          <mxGeometry x="540" y="120" width="230" height="210" as="geometry" />
        </mxCell>
        <mxCell id="LuFwdIvgryWhf0tasw3m-23" value="pawnPromotionMenu = True" style="rounded=0;whiteSpace=wrap;html=1;" vertex="1" parent="1">
          <mxGeometry x="572.5" y="360" width="165" height="60" as="geometry" />
        </mxCell>
        <mxCell id="LuFwdIvgryWhf0tasw3m-27" value="Continue" style="rounded=0;whiteSpace=wrap;html=1;" vertex="1" parent="1">
          <mxGeometry x="820" y="195" width="120" height="60" as="geometry" />
        </mxCell>
        <mxCell id="LuFwdIvgryWhf0tasw3m-30" value="" style="endArrow=none;dashed=1;html=1;rounded=0;exitX=0.5;exitY=1;exitDx=0;exitDy=0;" edge="1" parent="1" source="LuFwdIvgryWhf0tasw3m-23">
          <mxGeometry width="50" height="50" relative="1" as="geometry">
            <mxPoint x="470" y="420" as="sourcePoint" />
            <mxPoint x="655" y="460" as="targetPoint" />
          </mxGeometry>
        </mxCell>
        <mxCell id="LuFwdIvgryWhf0tasw3m-32" style="edgeStyle=orthogonalEdgeStyle;rounded=0;orthogonalLoop=1;jettySize=auto;html=1;exitX=1;exitY=0.5;exitDx=0;exitDy=0;entryX=0.5;entryY=1;entryDx=0;entryDy=0;" edge="1" parent="1" source="LuFwdIvgryWhf0tasw3m-31" target="LuFwdIvgryWhf0tasw3m-27">
          <mxGeometry relative="1" as="geometry">
            <mxPoint x="900" y="260" as="targetPoint" />
          </mxGeometry>
        </mxCell>
        <mxCell id="LuFwdIvgryWhf0tasw3m-33" value="No" style="edgeLabel;html=1;align=center;verticalAlign=middle;resizable=0;points=[];" vertex="1" connectable="0" parent="LuFwdIvgryWhf0tasw3m-32">
          <mxGeometry x="-0.7034" y="-2" relative="1" as="geometry">
            <mxPoint as="offset" />
          </mxGeometry>
        </mxCell>
        <mxCell id="LuFwdIvgryWhf0tasw3m-35" style="edgeStyle=orthogonalEdgeStyle;rounded=0;orthogonalLoop=1;jettySize=auto;html=1;exitX=0.5;exitY=1;exitDx=0;exitDy=0;" edge="1" parent="1" source="LuFwdIvgryWhf0tasw3m-31" target="LuFwdIvgryWhf0tasw3m-34">
          <mxGeometry relative="1" as="geometry" />
        </mxCell>
        <mxCell id="LuFwdIvgryWhf0tasw3m-31" value="Is pawnPromotionMenu True?" style="rhombus;whiteSpace=wrap;html=1;" vertex="1" parent="1">
          <mxGeometry x="586.25" y="460" width="137.5" height="140" as="geometry" />
        </mxCell>
        <mxCell id="LuFwdIvgryWhf0tasw3m-37" style="edgeStyle=orthogonalEdgeStyle;rounded=0;orthogonalLoop=1;jettySize=auto;html=1;exitX=0.5;exitY=1;exitDx=0;exitDy=0;" edge="1" parent="1" source="LuFwdIvgryWhf0tasw3m-34" target="LuFwdIvgryWhf0tasw3m-36">
          <mxGeometry relative="1" as="geometry" />
        </mxCell>
        <mxCell id="LuFwdIvgryWhf0tasw3m-34" value="Create instances for 4 buttons on screen for menu" style="rounded=0;whiteSpace=wrap;html=1;" vertex="1" parent="1">
          <mxGeometry x="595" y="620" width="120" height="60" as="geometry" />
        </mxCell>
        <mxCell id="LuFwdIvgryWhf0tasw3m-36" value="Add these to a list called buttons_list" style="rounded=0;whiteSpace=wrap;html=1;" vertex="1" parent="1">
          <mxGeometry x="595" y="710" width="120" height="60" as="geometry" />
        </mxCell>
        <mxCell id="LuFwdIvgryWhf0tasw3m-38" value="" style="endArrow=none;dashed=1;html=1;dashPattern=1 3;strokeWidth=2;rounded=0;entryX=0.5;entryY=1;entryDx=0;entryDy=0;exitX=0.5;exitY=0;exitDx=0;exitDy=0;" edge="1" parent="1" source="LuFwdIvgryWhf0tasw3m-39" target="LuFwdIvgryWhf0tasw3m-36">
          <mxGeometry width="50" height="50" relative="1" as="geometry">
            <mxPoint x="536.25" y="840" as="sourcePoint" />
            <mxPoint x="586.25" y="790" as="targetPoint" />
          </mxGeometry>
        </mxCell>
        <mxCell id="LuFwdIvgryWhf0tasw3m-41" style="edgeStyle=orthogonalEdgeStyle;rounded=0;orthogonalLoop=1;jettySize=auto;html=1;exitX=1;exitY=0.5;exitDx=0;exitDy=0;" edge="1" parent="1" source="LuFwdIvgryWhf0tasw3m-39">
          <mxGeometry relative="1" as="geometry">
            <mxPoint x="880" y="530" as="targetPoint" />
          </mxGeometry>
        </mxCell>
        <mxCell id="LuFwdIvgryWhf0tasw3m-42" value="No" style="edgeLabel;html=1;align=center;verticalAlign=middle;resizable=0;points=[];" vertex="1" connectable="0" parent="LuFwdIvgryWhf0tasw3m-41">
          <mxGeometry x="-0.693" y="2" relative="1" as="geometry">
            <mxPoint as="offset" />
          </mxGeometry>
        </mxCell>
        <mxCell id="LuFwdIvgryWhf0tasw3m-43" style="edgeStyle=orthogonalEdgeStyle;rounded=0;orthogonalLoop=1;jettySize=auto;html=1;exitX=0.5;exitY=1;exitDx=0;exitDy=0;" edge="1" parent="1" source="LuFwdIvgryWhf0tasw3m-39" target="LuFwdIvgryWhf0tasw3m-40">
          <mxGeometry relative="1" as="geometry" />
        </mxCell>
        <mxCell id="LuFwdIvgryWhf0tasw3m-44" value="Yes" style="edgeLabel;html=1;align=center;verticalAlign=middle;resizable=0;points=[];" vertex="1" connectable="0" parent="LuFwdIvgryWhf0tasw3m-43">
          <mxGeometry x="-0.1543" relative="1" as="geometry">
            <mxPoint as="offset" />
          </mxGeometry>
        </mxCell>
        <mxCell id="LuFwdIvgryWhf0tasw3m-39" value="Is there a mousebutton down event and is pawnPromotionmenu true?" style="rhombus;whiteSpace=wrap;html=1;" vertex="1" parent="1">
          <mxGeometry x="586.25" y="800" width="137.5" height="140" as="geometry" />
        </mxCell>
        <mxCell id="LuFwdIvgryWhf0tasw3m-45" style="edgeStyle=orthogonalEdgeStyle;rounded=0;orthogonalLoop=1;jettySize=auto;html=1;exitX=1;exitY=0.5;exitDx=0;exitDy=0;" edge="1" parent="1" source="LuFwdIvgryWhf0tasw3m-40">
          <mxGeometry relative="1" as="geometry">
            <mxPoint x="880" y="870" as="targetPoint" />
          </mxGeometry>
        </mxCell>
        <mxCell id="LuFwdIvgryWhf0tasw3m-46" value="No" style="edgeLabel;html=1;align=center;verticalAlign=middle;resizable=0;points=[];" vertex="1" connectable="0" parent="LuFwdIvgryWhf0tasw3m-45">
          <mxGeometry x="-0.565" y="-4" relative="1" as="geometry">
            <mxPoint as="offset" />
          </mxGeometry>
        </mxCell>
        <mxCell id="LuFwdIvgryWhf0tasw3m-48" style="edgeStyle=orthogonalEdgeStyle;rounded=0;orthogonalLoop=1;jettySize=auto;html=1;exitX=0.5;exitY=1;exitDx=0;exitDy=0;entryX=0.5;entryY=0;entryDx=0;entryDy=0;" edge="1" parent="1" source="LuFwdIvgryWhf0tasw3m-40" target="LuFwdIvgryWhf0tasw3m-47">
          <mxGeometry relative="1" as="geometry" />
        </mxCell>
        <mxCell id="LuFwdIvgryWhf0tasw3m-55" value="Yes" style="edgeLabel;html=1;align=center;verticalAlign=middle;resizable=0;points=[];" vertex="1" connectable="0" parent="LuFwdIvgryWhf0tasw3m-48">
          <mxGeometry x="-0.2667" y="1" relative="1" as="geometry">
            <mxPoint as="offset" />
          </mxGeometry>
        </mxCell>
        <mxCell id="LuFwdIvgryWhf0tasw3m-40" value="Were one of the buttons clicked?" style="rhombus;whiteSpace=wrap;html=1;" vertex="1" parent="1">
          <mxGeometry x="586.25" y="980" width="137.5" height="140" as="geometry" />
        </mxCell>
        <mxCell id="LuFwdIvgryWhf0tasw3m-50" style="edgeStyle=orthogonalEdgeStyle;rounded=0;orthogonalLoop=1;jettySize=auto;html=1;exitX=0.5;exitY=1;exitDx=0;exitDy=0;" edge="1" parent="1" source="LuFwdIvgryWhf0tasw3m-47" target="LuFwdIvgryWhf0tasw3m-49">
          <mxGeometry relative="1" as="geometry" />
        </mxCell>
        <mxCell id="LuFwdIvgryWhf0tasw3m-47" value="Update the moves log with the promoted piece" style="rounded=0;whiteSpace=wrap;html=1;" vertex="1" parent="1">
          <mxGeometry x="595" y="1150" width="120" height="60" as="geometry" />
        </mxCell>
        <mxCell id="LuFwdIvgryWhf0tasw3m-52" style="edgeStyle=orthogonalEdgeStyle;rounded=0;orthogonalLoop=1;jettySize=auto;html=1;exitX=0.5;exitY=1;exitDx=0;exitDy=0;entryX=0.5;entryY=0;entryDx=0;entryDy=0;" edge="1" parent="1" source="LuFwdIvgryWhf0tasw3m-49" target="LuFwdIvgryWhf0tasw3m-51">
          <mxGeometry relative="1" as="geometry" />
        </mxCell>
        <mxCell id="LuFwdIvgryWhf0tasw3m-49" value="Update selected_piece with the new piece identifier" style="rounded=0;whiteSpace=wrap;html=1;" vertex="1" parent="1">
          <mxGeometry x="595" y="1230" width="120" height="60" as="geometry" />
        </mxCell>
        <mxCell id="LuFwdIvgryWhf0tasw3m-54" style="edgeStyle=orthogonalEdgeStyle;rounded=0;orthogonalLoop=1;jettySize=auto;html=1;exitX=0.5;exitY=1;exitDx=0;exitDy=0;entryX=0.5;entryY=0;entryDx=0;entryDy=0;" edge="1" parent="1" source="LuFwdIvgryWhf0tasw3m-51" target="LuFwdIvgryWhf0tasw3m-53">
          <mxGeometry relative="1" as="geometry" />
        </mxCell>
        <mxCell id="LuFwdIvgryWhf0tasw3m-51" value="pawnPromotionMenu = False" style="rounded=0;whiteSpace=wrap;html=1;" vertex="1" parent="1">
          <mxGeometry x="595" y="1310" width="120" height="60" as="geometry" />
        </mxCell>
        <mxCell id="LuFwdIvgryWhf0tasw3m-53" value="Update the board with the newest Piece" style="rounded=0;whiteSpace=wrap;html=1;" vertex="1" parent="1">
          <mxGeometry x="595" y="1390" width="120" height="60" as="geometry" />
        </mxCell>
        <mxCell id="LuFwdIvgryWhf0tasw3m-56" value="" style="endArrow=none;dashed=1;html=1;dashPattern=1 3;strokeWidth=2;rounded=0;entryX=0.5;entryY=1;entryDx=0;entryDy=0;" edge="1" parent="1" target="LuFwdIvgryWhf0tasw3m-53">
          <mxGeometry width="50" height="50" relative="1" as="geometry">
            <mxPoint x="655" y="1510" as="sourcePoint" />
            <mxPoint x="670" y="1470" as="targetPoint" />
          </mxGeometry>
        </mxCell>
      </root>
    </mxGraphModel>
  </diagram>
</mxfile>
